<svg xmlns="http://www.w3.org/2000/svg" viewBox="0 0 106.09 94.98"><defs><style>.cls-1{fill:#fff;}</style></defs><g id="Layer_2" data-name="Layer 2"><g id="Layer_1-2" data-name="Layer 1"><path class="cls-1" d="M42.49,0a36.63,36.63,0,0,1,15.8,14.66c1,1.76,2,3.51,2.91,5.06l19.07,33a19.26,19.26,0,0,0,18.25,9.54A7.93,7.93,0,0,0,102,61.23,8.23,8.23,0,0,0,105,50L82.1,10.34A20.67,20.67,0,0,0,64.2,0H42.49"/><path class="cls-1" d="M25.66,4.12,2.77,43.75a20.68,20.68,0,0,0,0,20.67l10.85,18.8a36.66,36.66,0,0,1,4.8-21c1-1.76,2-3.5,2.92-5.05l19.07-33a19.23,19.23,0,0,0-.86-20.57A7.78,7.78,0,0,0,36.9,1.09a8.25,8.25,0,0,0-11.24,3"/><path class="cls-1" d="M80.44,72.2h-44a19.24,19.24,0,0,0-17.38,11,7.87,7.87,0,0,0-.81,3.52A8.23,8.23,0,0,0,26.52,95H72.28a20.65,20.65,0,0,0,17.9-10.34L101,65.85a36.56,36.56,0,0,1-20.6,6.35"/></g></g></svg>